<?xml version="1.0" encoding="UTF-8" standalone="no"?>
<!DOCTYPE svg PUBLIC "-//W3C//DTD SVG 1.1//EN"
 "http://www.w3.org/Graphics/SVG/1.1/DTD/svg11.dtd">
<!-- Generated by graphviz version 3.0.0 (20220226.1711)
 -->
<!-- Title: G Pages: 1 -->
<svg width="1361pt" height="266pt"
 viewBox="0.00 0.00 1361.20 266.20" xmlns="http://www.w3.org/2000/svg" xmlns:xlink="http://www.w3.org/1999/xlink">
<g id="graph0" class="graph" transform="scale(1 1) rotate(0) translate(21.6 244.6)">
<title>G</title>
<polygon fill="#111111" stroke="transparent" points="-21.6,21.6 -21.6,-244.6 1339.6,-244.6 1339.6,21.6 -21.6,21.6"/>
<!-- schema/Bol/Bol.ts -->
<g id="node1" class="node">
<title>schema/Bol/Bol.ts</title>
<path fill="none" stroke="#ff6c60" d="M185.83,-82C185.83,-82 70.17,-82 70.17,-82 66.33,-82 62.5,-78.17 62.5,-74.33 62.5,-74.33 62.5,-66.67 62.5,-66.67 62.5,-62.83 66.33,-59 70.17,-59 70.17,-59 185.83,-59 185.83,-59 189.67,-59 193.5,-62.83 193.5,-66.67 193.5,-66.67 193.5,-74.33 193.5,-74.33 193.5,-78.17 189.67,-82 185.83,-82"/>
<text text-anchor="middle" x="128" y="-66.8" font-family="Arial" font-size="14.00" fill="#ff6c60">schema/Bol/Bol.ts</text>
</g>
<!-- schema/Fulfillment/Fulfillment.ts -->
<g id="node2" class="node">
<title>schema/Fulfillment/Fulfillment.ts</title>
<path fill="none" stroke="#ff6c60" d="M532.33,-141C532.33,-141 329.67,-141 329.67,-141 325.83,-141 322,-137.17 322,-133.33 322,-133.33 322,-125.67 322,-125.67 322,-121.83 325.83,-118 329.67,-118 329.67,-118 532.33,-118 532.33,-118 536.17,-118 540,-121.83 540,-125.67 540,-125.67 540,-133.33 540,-133.33 540,-137.17 536.17,-141 532.33,-141"/>
<text text-anchor="middle" x="431" y="-125.8" font-family="Arial" font-size="14.00" fill="#ff6c60">schema/Fulfillment/Fulfillment.ts</text>
</g>
<!-- schema/Bol/Bol.ts&#45;&gt;schema/Fulfillment/Fulfillment.ts -->
<g id="edge1" class="edge">
<title>schema/Bol/Bol.ts&#45;&gt;schema/Fulfillment/Fulfillment.ts</title>
<path fill="none" stroke="#757575" d="M193.61,-75.59C223.52,-80.89 259.55,-88.16 292,-94.5 326.63,-101.27 366.21,-108.69 394.08,-115.5"/>
<polygon fill="#757575" stroke="#757575" points="393.23,-118.89 403.78,-117.97 394.96,-112.11 393.23,-118.89"/>
</g>
<!-- schema/Itinerary/Itinerary.ts -->
<g id="node3" class="node">
<title>schema/Itinerary/Itinerary.ts</title>
<path fill="none" stroke="#ff6c60" d="M518.33,-23C518.33,-23 343.67,-23 343.67,-23 339.83,-23 336,-19.17 336,-15.33 336,-15.33 336,-7.67 336,-7.67 336,-3.83 339.83,0 343.67,0 343.67,0 518.33,0 518.33,0 522.17,0 526,-3.83 526,-7.67 526,-7.67 526,-15.33 526,-15.33 526,-19.17 522.17,-23 518.33,-23"/>
<text text-anchor="middle" x="431" y="-7.8" font-family="Arial" font-size="14.00" fill="#ff6c60">schema/Itinerary/Itinerary.ts</text>
</g>
<!-- schema/Bol/Bol.ts&#45;&gt;schema/Itinerary/Itinerary.ts -->
<g id="edge2" class="edge">
<title>schema/Bol/Bol.ts&#45;&gt;schema/Itinerary/Itinerary.ts</title>
<path fill="none" stroke="#757575" d="M154.39,-58.98C186.43,-49.65 243.26,-38.02 292,-28.5 302.92,-26.37 314.33,-24.17 325.71,-22.04"/>
<polygon fill="#757575" stroke="#757575" points="326.49,-25.46 335.69,-20.2 325.22,-18.58 326.49,-25.46"/>
</g>
<!-- schema/Lot/Lot.ts -->
<g id="node4" class="node">
<title>schema/Lot/Lot.ts</title>
<path fill="none" stroke="#ff6c60" d="M744.83,-101C744.83,-101 630.17,-101 630.17,-101 626.33,-101 622.5,-97.17 622.5,-93.33 622.5,-93.33 622.5,-85.67 622.5,-85.67 622.5,-81.83 626.33,-78 630.17,-78 630.17,-78 744.83,-78 744.83,-78 748.67,-78 752.5,-81.83 752.5,-85.67 752.5,-85.67 752.5,-93.33 752.5,-93.33 752.5,-97.17 748.67,-101 744.83,-101"/>
<text text-anchor="middle" x="687.5" y="-85.8" font-family="Arial" font-size="14.00" fill="#ff6c60">schema/Lot/Lot.ts</text>
</g>
<!-- schema/Bol/Bol.ts&#45;&gt;schema/Lot/Lot.ts -->
<g id="edge3" class="edge">
<title>schema/Bol/Bol.ts&#45;&gt;schema/Lot/Lot.ts</title>
<path fill="none" stroke="#757575" d="M193.77,-72.71C297.97,-76.26 502.25,-83.22 612.21,-86.97"/>
<polygon fill="#757575" stroke="#757575" points="612.11,-90.47 622.23,-87.31 612.35,-83.47 612.11,-90.47"/>
</g>
<!-- schema/Fulfillment/Fulfillment.ts&#45;&gt;schema/Bol/Bol.ts -->
<g id="edge5" class="edge">
<title>schema/Fulfillment/Fulfillment.ts&#45;&gt;schema/Bol/Bol.ts</title>
<path fill="none" stroke="#757575" d="M321.87,-118.24C311.77,-116.34 301.69,-114.39 292,-112.5 247.83,-103.87 197.02,-93.51 164.03,-84.7"/>
<polygon fill="#757575" stroke="#757575" points="164.96,-81.33 154.39,-82.02 163.09,-88.07 164.96,-81.33"/>
</g>
<!-- schema/Fulfillment/Fulfillment.ts&#45;&gt;schema/Lot/Lot.ts -->
<g id="edge8" class="edge">
<title>schema/Fulfillment/Fulfillment.ts&#45;&gt;schema/Lot/Lot.ts</title>
<path fill="none" stroke="#757575" d="M472.89,-117.96C510.38,-110.34 566.81,-101.11 612.25,-94.97"/>
<polygon fill="#757575" stroke="#757575" points="612.91,-98.41 622.36,-93.63 611.99,-91.47 612.91,-98.41"/>
</g>
<!-- schema/Company/Company.ts -->
<g id="node5" class="node">
<title>schema/Company/Company.ts</title>
<path fill="none" stroke="#ff6c60" d="M1275.83,-120C1275.83,-120 1080.17,-120 1080.17,-120 1076.33,-120 1072.5,-116.17 1072.5,-112.33 1072.5,-112.33 1072.5,-104.67 1072.5,-104.67 1072.5,-100.83 1076.33,-97 1080.17,-97 1080.17,-97 1275.83,-97 1275.83,-97 1279.67,-97 1283.5,-100.83 1283.5,-104.67 1283.5,-104.67 1283.5,-112.33 1283.5,-112.33 1283.5,-116.17 1279.67,-120 1275.83,-120"/>
<text text-anchor="middle" x="1178" y="-104.8" font-family="Arial" font-size="14.00" fill="#ff6c60">schema/Company/Company.ts</text>
</g>
<!-- schema/Fulfillment/Fulfillment.ts&#45;&gt;schema/Company/Company.ts -->
<g id="edge6" class="edge">
<title>schema/Fulfillment/Fulfillment.ts&#45;&gt;schema/Company/Company.ts</title>
<path fill="none" stroke="#757575" d="M540.33,-126.45C679.55,-122.52 920.19,-115.74 1062.38,-111.73"/>
<polygon fill="#757575" stroke="#757575" points="1062.55,-115.23 1072.45,-111.45 1062.35,-108.23 1062.55,-115.23"/>
</g>
<!-- schema/Location/Location.ts -->
<g id="node6" class="node">
<title>schema/Location/Location.ts</title>
<path fill="none" stroke="#ff6c60" d="M994.33,-179C994.33,-179 812.67,-179 812.67,-179 808.83,-179 805,-175.17 805,-171.33 805,-171.33 805,-163.67 805,-163.67 805,-159.83 808.83,-156 812.67,-156 812.67,-156 994.33,-156 994.33,-156 998.17,-156 1002,-159.83 1002,-163.67 1002,-163.67 1002,-171.33 1002,-171.33 1002,-175.17 998.17,-179 994.33,-179"/>
<text text-anchor="middle" x="903.5" y="-163.8" font-family="Arial" font-size="14.00" fill="#ff6c60">schema/Location/Location.ts</text>
</g>
<!-- schema/Fulfillment/Fulfillment.ts&#45;&gt;schema/Location/Location.ts -->
<g id="edge7" class="edge">
<title>schema/Fulfillment/Fulfillment.ts&#45;&gt;schema/Location/Location.ts</title>
<path fill="none" stroke="#757575" d="M540.24,-138.24C616.59,-144.41 718.42,-152.63 794.68,-158.79"/>
<polygon fill="#757575" stroke="#757575" points="794.54,-162.29 804.79,-159.61 795.1,-155.31 794.54,-162.29"/>
</g>
<!-- schema/Itinerary/Itinerary.ts&#45;&gt;schema/Bol/Bol.ts -->
<g id="edge9" class="edge">
<title>schema/Itinerary/Itinerary.ts&#45;&gt;schema/Bol/Bol.ts</title>
<path fill="none" stroke="#757575" d="M403.78,-23.03C376.01,-30.47 330.88,-38.9 292,-46.5 263.1,-52.15 231.36,-58.53 203.63,-63.6"/>
<polygon fill="#757575" stroke="#757575" points="202.83,-60.19 193.61,-65.41 204.07,-67.08 202.83,-60.19"/>
</g>
<!-- schema/Itinerary/Itinerary.ts&#45;&gt;schema/Company/Company.ts -->
<g id="edge10" class="edge">
<title>schema/Itinerary/Itinerary.ts&#45;&gt;schema/Company/Company.ts</title>
<path fill="none" stroke="#757575" d="M526.05,-12.5C639.87,-15.29 836.82,-25.2 1002,-59.5 1046.42,-68.72 1096.16,-83.05 1131.22,-93.83"/>
<polygon fill="#757575" stroke="#757575" points="1130.57,-97.29 1141.16,-96.91 1132.64,-90.61 1130.57,-97.29"/>
</g>
<!-- schema/Order/Order.ts -->
<g id="node7" class="node">
<title>schema/Order/Order.ts</title>
<path fill="none" stroke="#ff6c60" d="M761.33,-60C761.33,-60 613.67,-60 613.67,-60 609.83,-60 606,-56.17 606,-52.33 606,-52.33 606,-44.67 606,-44.67 606,-40.83 609.83,-37 613.67,-37 613.67,-37 761.33,-37 761.33,-37 765.17,-37 769,-40.83 769,-44.67 769,-44.67 769,-52.33 769,-52.33 769,-56.17 765.17,-60 761.33,-60"/>
<text text-anchor="middle" x="687.5" y="-44.8" font-family="Arial" font-size="14.00" fill="#ff6c60">schema/Order/Order.ts</text>
</g>
<!-- schema/Itinerary/Itinerary.ts&#45;&gt;schema/Order/Order.ts -->
<g id="edge11" class="edge">
<title>schema/Itinerary/Itinerary.ts&#45;&gt;schema/Order/Order.ts</title>
<path fill="none" stroke="#757575" d="M526.04,-18.63C562.05,-23.4 601.86,-29.5 632.82,-35.07"/>
<polygon fill="#757575" stroke="#757575" points="632.5,-38.57 642.97,-36.94 633.76,-31.69 632.5,-38.57"/>
</g>
<!-- schema/Lot/Lot.ts&#45;&gt;schema/Fulfillment/Fulfillment.ts -->
<g id="edge15" class="edge">
<title>schema/Lot/Lot.ts&#45;&gt;schema/Fulfillment/Fulfillment.ts</title>
<path fill="none" stroke="#757575" d="M645.75,-101.01C619.77,-106.29 584.66,-112.35 550.41,-117.63"/>
<polygon fill="#757575" stroke="#757575" points="549.66,-114.2 540.3,-119.16 550.71,-121.12 549.66,-114.2"/>
</g>
<!-- schema/Lot/Lot.ts&#45;&gt;schema/Company/Company.ts -->
<g id="edge14" class="edge">
<title>schema/Lot/Lot.ts&#45;&gt;schema/Company/Company.ts</title>
<path fill="none" stroke="#757575" d="M752.61,-91.99C831.11,-95.05 965.51,-100.27 1062.05,-104.03"/>
<polygon fill="#757575" stroke="#757575" points="1062.02,-107.53 1072.15,-104.42 1062.3,-100.54 1062.02,-107.53"/>
</g>
<!-- schema/Lot/Lot.ts&#45;&gt;schema/Location/Location.ts -->
<g id="edge16" class="edge">
<title>schema/Lot/Lot.ts&#45;&gt;schema/Location/Location.ts</title>
<path fill="none" stroke="#757575" d="M720.08,-101.01C757.53,-114.66 820.08,-137.46 861.31,-152.49"/>
<polygon fill="#757575" stroke="#757575" points="860.2,-155.81 870.79,-155.94 862.6,-149.23 860.2,-155.81"/>
</g>
<!-- schema/Company/Company.ts&#45;&gt;schema/Location/Location.ts -->
<g id="edge4" class="edge">
<title>schema/Company/Company.ts&#45;&gt;schema/Location/Location.ts</title>
<path fill="none" stroke="#757575" d="M1144.68,-120.05C1108.4,-129.93 1047.92,-143.65 996.73,-153.96"/>
<polygon fill="#757575" stroke="#757575" points="995.75,-150.58 986.63,-155.97 997.12,-157.45 995.75,-150.58"/>
</g>
<!-- schema/Location/Location.ts&#45;&gt;schema/Company/Company.ts -->
<g id="edge12" class="edge">
<title>schema/Location/Location.ts&#45;&gt;schema/Company/Company.ts</title>
<path fill="none" stroke="#757575" d="M936.83,-155.95C973.11,-146.06 1033.59,-132.35 1084.79,-122.04"/>
<polygon fill="#757575" stroke="#757575" points="1085.77,-125.41 1094.89,-120.03 1084.4,-118.55 1085.77,-125.41"/>
</g>
<!-- schema/ProductionLine/ProductionLine.ts -->
<g id="node8" class="node">
<title>schema/ProductionLine/ProductionLine.ts</title>
<path fill="none" stroke="#ff6c60" d="M1310.33,-179C1310.33,-179 1045.67,-179 1045.67,-179 1041.83,-179 1038,-175.17 1038,-171.33 1038,-171.33 1038,-163.67 1038,-163.67 1038,-159.83 1041.83,-156 1045.67,-156 1045.67,-156 1310.33,-156 1310.33,-156 1314.17,-156 1318,-159.83 1318,-163.67 1318,-163.67 1318,-171.33 1318,-171.33 1318,-175.17 1314.17,-179 1310.33,-179"/>
<text text-anchor="middle" x="1178" y="-163.8" font-family="Arial" font-size="14.00" fill="#ff6c60">schema/ProductionLine/ProductionLine.ts</text>
</g>
<!-- schema/Location/Location.ts&#45;&gt;schema/ProductionLine/ProductionLine.ts -->
<g id="edge13" class="edge">
<title>schema/Location/Location.ts&#45;&gt;schema/ProductionLine/ProductionLine.ts</title>
<path fill="none" stroke="#757575" d="M1002.11,-161C1010.45,-160.89 1019,-160.81 1027.63,-160.78"/>
<polygon fill="#757575" stroke="#757575" points="1027.78,-164.28 1037.78,-160.75 1027.77,-157.28 1027.78,-164.28"/>
</g>
<!-- schema/Order/Order.ts&#45;&gt;schema/Bol/Bol.ts -->
<g id="edge17" class="edge">
<title>schema/Order/Order.ts&#45;&gt;schema/Bol/Bol.ts</title>
<path fill="none" stroke="#757575" d="M605.6,-51.69C497.82,-55.95 308.61,-63.41 203.94,-67.54"/>
<polygon fill="#757575" stroke="#757575" points="203.62,-64.05 193.77,-67.94 203.9,-71.05 203.62,-64.05"/>
</g>
<!-- schema/Order/Order.ts&#45;&gt;schema/Itinerary/Itinerary.ts -->
<g id="edge19" class="edge">
<title>schema/Order/Order.ts&#45;&gt;schema/Itinerary/Itinerary.ts</title>
<path fill="none" stroke="#757575" d="M605.93,-43.12C566.6,-38.14 520.36,-31.18 485.45,-24.89"/>
<polygon fill="#757575" stroke="#757575" points="485.93,-21.42 475.46,-23.05 484.66,-28.3 485.93,-21.42"/>
</g>
<!-- schema/Order/Order.ts&#45;&gt;schema/Company/Company.ts -->
<g id="edge18" class="edge">
<title>schema/Order/Order.ts&#45;&gt;schema/Company/Company.ts</title>
<path fill="none" stroke="#757575" d="M769.17,-58.41C852.36,-68.63 982.41,-84.6 1073.22,-95.75"/>
<polygon fill="#757575" stroke="#757575" points="1072.91,-99.24 1083.26,-96.99 1073.76,-92.29 1072.91,-99.24"/>
</g>
<!-- schema/ProductionLine/ProductionLine.ts&#45;&gt;schema/Location/Location.ts -->
<g id="edge20" class="edge">
<title>schema/ProductionLine/ProductionLine.ts&#45;&gt;schema/Location/Location.ts</title>
<path fill="none" stroke="#757575" d="M1037.78,-174.25C1029.21,-174.24 1020.66,-174.2 1012.27,-174.12"/>
<polygon fill="#757575" stroke="#757575" points="1012.15,-170.62 1002.11,-174 1012.07,-177.62 1012.15,-170.62"/>
</g>
<!-- schema/Recipe/Recipe.ts -->
<g id="node9" class="node">
<title>schema/Recipe/Recipe.ts</title>
<path fill="none" stroke="#ff6c60" d="M210.83,-182C210.83,-182 45.17,-182 45.17,-182 41.33,-182 37.5,-178.17 37.5,-174.33 37.5,-174.33 37.5,-166.67 37.5,-166.67 37.5,-162.83 41.33,-159 45.17,-159 45.17,-159 210.83,-159 210.83,-159 214.67,-159 218.5,-162.83 218.5,-166.67 218.5,-166.67 218.5,-174.33 218.5,-174.33 218.5,-178.17 214.67,-182 210.83,-182"/>
<text text-anchor="middle" x="128" y="-166.8" font-family="Arial" font-size="14.00" fill="#ff6c60">schema/Recipe/Recipe.ts</text>
</g>
<!-- schema/RecipeVersion/RecipeVersion.ts -->
<g id="node10" class="node">
<title>schema/RecipeVersion/RecipeVersion.ts</title>
<path fill="none" stroke="#ff6c60" d="M562.33,-182C562.33,-182 299.67,-182 299.67,-182 295.83,-182 292,-178.17 292,-174.33 292,-174.33 292,-166.67 292,-166.67 292,-162.83 295.83,-159 299.67,-159 299.67,-159 562.33,-159 562.33,-159 566.17,-159 570,-162.83 570,-166.67 570,-166.67 570,-174.33 570,-174.33 570,-178.17 566.17,-182 562.33,-182"/>
<text text-anchor="middle" x="431" y="-166.8" font-family="Arial" font-size="14.00" fill="#ff6c60">schema/RecipeVersion/RecipeVersion.ts</text>
</g>
<!-- schema/Recipe/Recipe.ts&#45;&gt;schema/RecipeVersion/RecipeVersion.ts -->
<g id="edge21" class="edge">
<title>schema/Recipe/Recipe.ts&#45;&gt;schema/RecipeVersion/RecipeVersion.ts</title>
<path fill="none" stroke="#757575" d="M218.9,-164.26C238.72,-163.91 260.21,-163.74 281.65,-163.75"/>
<polygon fill="#757575" stroke="#757575" points="281.82,-167.25 291.83,-163.77 281.84,-160.25 281.82,-167.25"/>
</g>
<!-- schema/RecipeVersion/RecipeVersion.ts&#45;&gt;schema/Recipe/Recipe.ts -->
<g id="edge22" class="edge">
<title>schema/RecipeVersion/RecipeVersion.ts&#45;&gt;schema/Recipe/Recipe.ts</title>
<path fill="none" stroke="#757575" d="M291.83,-177.23C270.65,-177.3 249.13,-177.19 228.99,-176.9"/>
<polygon fill="#757575" stroke="#757575" points="228.96,-173.4 218.9,-176.74 228.84,-180.4 228.96,-173.4"/>
</g>
<!-- schema/SignedUrl/SignedUrlConfig.ts -->
<g id="node11" class="node">
<title>schema/SignedUrl/SignedUrlConfig.ts</title>
<path fill="none" stroke="#ff6c60" d="M248.33,-223C248.33,-223 7.67,-223 7.67,-223 3.83,-223 0,-219.17 0,-215.33 0,-215.33 0,-207.67 0,-207.67 0,-203.83 3.83,-200 7.67,-200 7.67,-200 248.33,-200 248.33,-200 252.17,-200 256,-203.83 256,-207.67 256,-207.67 256,-215.33 256,-215.33 256,-219.17 252.17,-223 248.33,-223"/>
<text text-anchor="middle" x="128" y="-207.8" font-family="Arial" font-size="14.00" fill="#ff6c60">schema/SignedUrl/SignedUrlConfig.ts</text>
</g>
<!-- schema/SignedUrl/SignedUrlResolvers.ts -->
<g id="node12" class="node">
<title>schema/SignedUrl/SignedUrlResolvers.ts</title>
<path fill="none" stroke="#ff6c60" d="M562.33,-223C562.33,-223 299.67,-223 299.67,-223 295.83,-223 292,-219.17 292,-215.33 292,-215.33 292,-207.67 292,-207.67 292,-203.83 295.83,-200 299.67,-200 299.67,-200 562.33,-200 562.33,-200 566.17,-200 570,-203.83 570,-207.67 570,-207.67 570,-215.33 570,-215.33 570,-219.17 566.17,-223 562.33,-223"/>
<text text-anchor="middle" x="431" y="-207.8" font-family="Arial" font-size="14.00" fill="#ff6c60">schema/SignedUrl/SignedUrlResolvers.ts</text>
</g>
<!-- schema/SignedUrl/SignedUrlConfig.ts&#45;&gt;schema/SignedUrl/SignedUrlResolvers.ts -->
<g id="edge23" class="edge">
<title>schema/SignedUrl/SignedUrlConfig.ts&#45;&gt;schema/SignedUrl/SignedUrlResolvers.ts</title>
<path fill="none" stroke="#757575" d="M256.21,-204.82C264.54,-204.77 272.97,-204.75 281.38,-204.75"/>
<polygon fill="#757575" stroke="#757575" points="281.63,-208.25 291.64,-204.77 281.65,-201.25 281.63,-208.25"/>
</g>
<!-- schema/SignedUrl/SignedUrlResolvers.ts&#45;&gt;schema/SignedUrl/SignedUrlConfig.ts -->
<g id="edge24" class="edge">
<title>schema/SignedUrl/SignedUrlResolvers.ts&#45;&gt;schema/SignedUrl/SignedUrlConfig.ts</title>
<path fill="none" stroke="#757575" d="M291.64,-218.23C283.25,-218.26 274.8,-218.26 266.41,-218.23"/>
<polygon fill="#757575" stroke="#757575" points="266.23,-214.73 256.21,-218.18 266.2,-221.73 266.23,-214.73"/>
</g>
</g>
</svg>
