<?xml version="1.0" encoding="UTF-8" standalone="no"?>
<!DOCTYPE svg PUBLIC "-//W3C//DTD SVG 1.1//EN"
 "http://www.w3.org/Graphics/SVG/1.1/DTD/svg11.dtd">
<!-- Generated by graphviz version 3.0.0 (20220226.1711)
 -->
<!-- Title: G Pages: 1 -->
<svg width="1170pt" height="192pt"
 viewBox="0.00 0.00 1170.20 191.85" xmlns="http://www.w3.org/2000/svg" xmlns:xlink="http://www.w3.org/1999/xlink">
<g id="graph0" class="graph" transform="scale(1 1) rotate(0) translate(21.6 170.25)">
<title>G</title>
<polygon fill="#111111" stroke="transparent" points="-21.6,21.6 -21.6,-170.25 1148.6,-170.25 1148.6,21.6 -21.6,21.6"/>
<!-- schema/Bol/Bol.ts -->
<g id="node1" class="node">
<title>schema/Bol/Bol.ts</title>
<path fill="none" stroke="#ff6c60" d="M123.33,-68.65C123.33,-68.65 7.67,-68.65 7.67,-68.65 3.83,-68.65 0,-64.82 0,-60.99 0,-60.99 0,-53.32 0,-53.32 0,-49.49 3.83,-45.65 7.67,-45.65 7.67,-45.65 123.33,-45.65 123.33,-45.65 127.17,-45.65 131,-49.49 131,-53.32 131,-53.32 131,-60.99 131,-60.99 131,-64.82 127.17,-68.65 123.33,-68.65"/>
<text text-anchor="middle" x="65.5" y="-53.45" font-family="Arial" font-size="14.00" fill="#ff6c60">schema/Bol/Bol.ts</text>
</g>
<!-- schema/Bol/projectBolStatus.ts -->
<g id="node2" class="node">
<title>schema/Bol/projectBolStatus.ts</title>
<path fill="none" stroke="#ff6c60" d="M374.33,-148.65C374.33,-148.65 174.67,-148.65 174.67,-148.65 170.83,-148.65 167,-144.82 167,-140.99 167,-140.99 167,-133.32 167,-133.32 167,-129.49 170.83,-125.65 174.67,-125.65 174.67,-125.65 374.33,-125.65 374.33,-125.65 378.17,-125.65 382,-129.49 382,-133.32 382,-133.32 382,-140.99 382,-140.99 382,-144.82 378.17,-148.65 374.33,-148.65"/>
<text text-anchor="middle" x="274.5" y="-133.45" font-family="Arial" font-size="14.00" fill="#ff6c60">schema/Bol/projectBolStatus.ts</text>
</g>
<!-- schema/Bol/Bol.ts&#45;&gt;schema/Bol/projectBolStatus.ts -->
<g id="edge1" class="edge">
<title>schema/Bol/Bol.ts&#45;&gt;schema/Bol/projectBolStatus.ts</title>
<path fill="none" stroke="#757575" d="M84.72,-68.78C104.35,-80.86 136.86,-99.59 167,-111.15 179.04,-115.77 192.16,-119.76 204.95,-123.14"/>
<polygon fill="#757575" stroke="#757575" points="204.09,-126.53 214.64,-125.6 205.81,-119.75 204.09,-126.53"/>
</g>
<!-- schema/Bol/setBolStatus.ts -->
<g id="node3" class="node">
<title>schema/Bol/setBolStatus.ts</title>
<path fill="none" stroke="#ff6c60" d="M362.33,-68.65C362.33,-68.65 186.67,-68.65 186.67,-68.65 182.83,-68.65 179,-64.82 179,-60.99 179,-60.99 179,-53.32 179,-53.32 179,-49.49 182.83,-45.65 186.67,-45.65 186.67,-45.65 362.33,-45.65 362.33,-45.65 366.17,-45.65 370,-49.49 370,-53.32 370,-53.32 370,-60.99 370,-60.99 370,-64.82 366.17,-68.65 362.33,-68.65"/>
<text text-anchor="middle" x="274.5" y="-53.45" font-family="Arial" font-size="14.00" fill="#ff6c60">schema/Bol/setBolStatus.ts</text>
</g>
<!-- schema/Bol/Bol.ts&#45;&gt;schema/Bol/setBolStatus.ts -->
<g id="edge2" class="edge">
<title>schema/Bol/Bol.ts&#45;&gt;schema/Bol/setBolStatus.ts</title>
<path fill="none" stroke="#757575" d="M131.14,-50.85C143.03,-50.56 155.72,-50.42 168.44,-50.4"/>
<polygon fill="#757575" stroke="#757575" points="168.62,-53.9 178.63,-50.42 168.64,-46.9 168.62,-53.9"/>
</g>
<!-- schema/Itinerary/Itinerary.ts -->
<g id="node4" class="node">
<title>schema/Itinerary/Itinerary.ts</title>
<path fill="none" stroke="#ff6c60" d="M614.33,-108.65C614.33,-108.65 439.67,-108.65 439.67,-108.65 435.83,-108.65 432,-104.82 432,-100.99 432,-100.99 432,-93.32 432,-93.32 432,-89.49 435.83,-85.65 439.67,-85.65 439.67,-85.65 614.33,-85.65 614.33,-85.65 618.17,-85.65 622,-89.49 622,-93.32 622,-93.32 622,-100.99 622,-100.99 622,-104.82 618.17,-108.65 614.33,-108.65"/>
<text text-anchor="middle" x="527" y="-93.45" font-family="Arial" font-size="14.00" fill="#ff6c60">schema/Itinerary/Itinerary.ts</text>
</g>
<!-- schema/Bol/Bol.ts&#45;&gt;schema/Itinerary/Itinerary.ts -->
<g id="edge3" class="edge">
<title>schema/Bol/Bol.ts&#45;&gt;schema/Itinerary/Itinerary.ts</title>
<path fill="none" stroke="#757575" d="M114.3,-68.7C130.89,-72.29 149.68,-75.9 167,-78.15 252.24,-89.25 349.67,-93.9 421.5,-95.84"/>
<polygon fill="#757575" stroke="#757575" points="421.83,-99.35 431.91,-96.11 422.01,-92.35 421.83,-99.35"/>
</g>
<!-- schema/Bol/projectBolStatus.ts&#45;&gt;schema/Itinerary/Itinerary.ts -->
<g id="edge5" class="edge">
<title>schema/Bol/projectBolStatus.ts&#45;&gt;schema/Itinerary/Itinerary.ts</title>
<path fill="none" stroke="#757575" d="M347.62,-125.64C377.75,-120.83 412.91,-115.21 444.01,-110.25"/>
<polygon fill="#757575" stroke="#757575" points="444.63,-113.69 453.96,-108.66 443.53,-106.78 444.63,-113.69"/>
</g>
<!-- schema/Bol/setBolStatus.ts&#45;&gt;schema/Bol/Bol.ts -->
<g id="edge6" class="edge">
<title>schema/Bol/setBolStatus.ts&#45;&gt;schema/Bol/Bol.ts</title>
<path fill="none" stroke="#757575" d="M178.63,-63.88C166.08,-63.94 153.35,-63.87 141.2,-63.67"/>
<polygon fill="#757575" stroke="#757575" points="141.21,-60.17 131.14,-63.46 141.07,-67.16 141.21,-60.17"/>
</g>
<!-- schema/Fulfillment/Fulfillment.ts -->
<g id="node6" class="node">
<title>schema/Fulfillment/Fulfillment.ts</title>
<path fill="none" stroke="#ff6c60" d="M628.33,-49.65C628.33,-49.65 425.67,-49.65 425.67,-49.65 421.83,-49.65 418,-45.82 418,-41.99 418,-41.99 418,-34.32 418,-34.32 418,-30.49 421.83,-26.65 425.67,-26.65 425.67,-26.65 628.33,-26.65 628.33,-26.65 632.17,-26.65 636,-30.49 636,-34.32 636,-34.32 636,-41.99 636,-41.99 636,-45.82 632.17,-49.65 628.33,-49.65"/>
<text text-anchor="middle" x="527" y="-34.45" font-family="Arial" font-size="14.00" fill="#ff6c60">schema/Fulfillment/Fulfillment.ts</text>
</g>
<!-- schema/Bol/setBolStatus.ts&#45;&gt;schema/Fulfillment/Fulfillment.ts -->
<g id="edge7" class="edge">
<title>schema/Bol/setBolStatus.ts&#45;&gt;schema/Fulfillment/Fulfillment.ts</title>
<path fill="none" stroke="#757575" d="M370.2,-49.97C382.45,-49.04 395.11,-48.08 407.67,-47.13"/>
<polygon fill="#757575" stroke="#757575" points="408.01,-50.61 417.72,-46.37 407.48,-43.63 408.01,-50.61"/>
</g>
<!-- schema/Itinerary/setItineraryStatus.ts -->
<g id="node7" class="node">
<title>schema/Itinerary/setItineraryStatus.ts</title>
<path fill="none" stroke="#ff6c60" d="M913.33,-108.65C913.33,-108.65 679.67,-108.65 679.67,-108.65 675.83,-108.65 672,-104.82 672,-100.99 672,-100.99 672,-93.32 672,-93.32 672,-89.49 675.83,-85.65 679.67,-85.65 679.67,-85.65 913.33,-85.65 913.33,-85.65 917.17,-85.65 921,-89.49 921,-93.32 921,-93.32 921,-100.99 921,-100.99 921,-104.82 917.17,-108.65 913.33,-108.65"/>
<text text-anchor="middle" x="796.5" y="-93.45" font-family="Arial" font-size="14.00" fill="#ff6c60">schema/Itinerary/setItineraryStatus.ts</text>
</g>
<!-- schema/Itinerary/Itinerary.ts&#45;&gt;schema/Itinerary/setItineraryStatus.ts -->
<g id="edge10" class="edge">
<title>schema/Itinerary/Itinerary.ts&#45;&gt;schema/Itinerary/setItineraryStatus.ts</title>
<path fill="none" stroke="#757575" d="M622.31,-90.67C635.02,-90.49 648.24,-90.4 661.47,-90.4"/>
<polygon fill="#757575" stroke="#757575" points="661.58,-93.9 671.58,-90.42 661.59,-86.9 661.58,-93.9"/>
</g>
<!-- schema/Bol/BolModel.ts -->
<g id="node5" class="node">
<title>schema/Bol/BolModel.ts</title>
<path fill="none" stroke="#ff6c60" d="M1119.33,-49.65C1119.33,-49.65 964.67,-49.65 964.67,-49.65 960.83,-49.65 957,-45.82 957,-41.99 957,-41.99 957,-34.32 957,-34.32 957,-30.49 960.83,-26.65 964.67,-26.65 964.67,-26.65 1119.33,-26.65 1119.33,-26.65 1123.17,-26.65 1127,-30.49 1127,-34.32 1127,-34.32 1127,-41.99 1127,-41.99 1127,-45.82 1123.17,-49.65 1119.33,-49.65"/>
<text text-anchor="middle" x="1042" y="-34.45" font-family="Arial" font-size="14.00" fill="#ff6c60">schema/Bol/BolModel.ts</text>
</g>
<!-- schema/Bol/BolModel.ts&#45;&gt;schema/Bol/Bol.ts -->
<g id="edge4" class="edge">
<title>schema/Bol/BolModel.ts&#45;&gt;schema/Bol/Bol.ts</title>
<path fill="none" stroke="#757575" d="M956.77,-26.99C800,-8.41 453.35,22.27 167,-26.15 146.64,-29.6 124.67,-36.04 106.47,-42.17"/>
<polygon fill="#757575" stroke="#757575" points="105.09,-38.95 96.78,-45.52 107.38,-45.56 105.09,-38.95"/>
</g>
<!-- schema/Fulfillment/Fulfillment.ts&#45;&gt;schema/Bol/Bol.ts -->
<g id="edge8" class="edge">
<title>schema/Fulfillment/Fulfillment.ts&#45;&gt;schema/Bol/Bol.ts</title>
<path fill="none" stroke="#757575" d="M417.7,-31.45C346.31,-28.54 250.85,-27.49 167,-36.15 152.16,-37.69 136.29,-40.46 121.63,-43.5"/>
<polygon fill="#757575" stroke="#757575" points="120.75,-40.11 111.72,-45.64 122.23,-46.96 120.75,-40.11"/>
</g>
<!-- schema/Fulfillment/Fulfillment.ts&#45;&gt;schema/Bol/BolModel.ts -->
<g id="edge9" class="edge">
<title>schema/Fulfillment/Fulfillment.ts&#45;&gt;schema/Bol/BolModel.ts</title>
<path fill="none" stroke="#757575" d="M636.17,-38.15C728.07,-38.15 858.67,-38.15 946.45,-38.15"/>
<polygon fill="#757575" stroke="#757575" points="946.67,-41.65 956.67,-38.15 946.67,-34.65 946.67,-41.65"/>
</g>
<!-- schema/Itinerary/setItineraryStatus.ts&#45;&gt;schema/Itinerary/Itinerary.ts -->
<g id="edge12" class="edge">
<title>schema/Itinerary/setItineraryStatus.ts&#45;&gt;schema/Itinerary/Itinerary.ts</title>
<path fill="none" stroke="#757575" d="M671.58,-103.89C658.51,-103.93 645.32,-103.89 632.5,-103.76"/>
<polygon fill="#757575" stroke="#757575" points="632.35,-100.26 622.31,-103.64 632.27,-107.26 632.35,-100.26"/>
</g>
<!-- schema/Itinerary/setItineraryStatus.ts&#45;&gt;schema/Bol/BolModel.ts -->
<g id="edge11" class="edge">
<title>schema/Itinerary/setItineraryStatus.ts&#45;&gt;schema/Bol/BolModel.ts</title>
<path fill="none" stroke="#757575" d="M845.03,-85.64C884.62,-76.04 941.15,-62.35 983.33,-52.13"/>
<polygon fill="#757575" stroke="#757575" points="984.28,-55.5 993.18,-49.74 982.63,-48.69 984.28,-55.5"/>
</g>
</g>
</svg>
